<svg width="1926" height="532" viewBox="0 0 1926 532" fill="none" xmlns="http://www.w3.org/2000/svg">
<g clip-path="url(#clip0_801_2)">
<mask id="mask0_801_2" style="mask-type:luminance" maskUnits="userSpaceOnUse" x="0" y="0" width="1926" height="532">
<path d="M1926 0H0V532H1926V0Z" fill="white"/>
</mask>
<g mask="url(#mask0_801_2)">
<path d="M155.305 402.695C207.16 387.559 251.545 365.439 288.459 336.338C286.115 329.99 284.113 325.205 282.453 321.982C256.477 339.17 224.885 354.307 187.678 367.393C183.479 368.76 181.086 369.443 180.5 369.443C178.938 369.443 177.033 367.344 174.787 363.145C171.271 356.797 166.877 351.182 161.604 346.299C201.154 337.51 237.531 322.52 270.734 301.328C267.219 295.664 264.338 291.465 262.092 288.73C242.658 298.789 221.174 307.432 197.639 314.658C194.221 315.635 191.926 316.123 190.754 316.123C189.094 316.123 187.287 314.463 185.334 311.143C181.721 304.404 177.131 298.496 171.564 293.418C208.967 285.508 240.266 274.814 265.461 261.338H249.787L209.65 261.924C207.893 261.924 206.818 261.68 206.428 261.191C206.135 260.801 205.988 259.873 205.988 258.408V239.512C205.988 237.754 206.232 236.68 206.721 236.289C207.111 235.996 208.088 235.85 209.65 235.85L249.787 236.436H335.041L375.471 235.85C377.033 235.85 378.01 236.045 378.4 236.436C378.693 236.924 378.84 237.949 378.84 239.512V258.408C378.84 260.068 378.645 261.094 378.254 261.484C377.863 261.777 376.936 261.924 375.471 261.924L335.92 261.338C339.924 278.037 344.807 292.734 350.568 305.43C357.307 299.082 363.508 292.588 369.172 285.947C373.176 281.553 377.473 275.547 382.062 267.93C390.754 273.789 398.078 279.404 404.035 284.775C407.062 286.924 408.576 288.926 408.576 290.781C408.576 292.93 407.258 294.443 404.621 295.322C403.352 295.811 398.957 299.766 391.438 307.188C381.379 316.855 372.346 324.863 364.338 331.211C380.354 355.723 402.863 376.475 431.867 393.467C424.543 400.791 419.172 407.676 415.754 414.121C413.117 418.711 411.115 421.006 409.748 421.006C409.26 421.006 407.16 419.785 403.449 417.344C377.277 398.203 356.135 374.326 340.021 345.713C326.936 322.471 316.145 294.346 307.648 261.338H306.184C299.738 266.123 292.951 270.615 285.822 274.814C311.994 306.943 325.08 342.344 325.08 381.016C325.08 403.477 321.418 418.662 314.094 426.572C307.551 433.604 296.125 437.119 279.816 437.119C272.98 437.119 267.756 436.924 264.143 436.533C259.943 436.24 257.453 435.654 256.672 434.775C255.988 434.092 255.305 431.992 254.621 428.477C252.277 418.906 249.348 411.729 245.832 406.943C256.379 408.115 266.779 408.701 277.033 408.701C284.26 408.701 289.094 406.748 291.535 402.842C294.074 398.74 295.344 391.074 295.344 379.844C295.344 374.18 295.051 368.809 294.465 363.73C261.848 388.633 224.543 408.945 182.551 424.668C178.352 426.035 175.959 426.719 175.373 426.719C173.615 426.719 171.613 424.521 169.367 420.127C165.852 413.584 161.164 407.773 155.305 402.695ZM376.057 188.828L415.754 188.242C417.316 188.242 418.244 188.438 418.537 188.828C418.83 189.219 418.977 190.146 418.977 191.611L418.391 205.967V218.271L418.977 250.352C418.977 251.914 418.781 252.842 418.391 253.135C418 253.428 417.121 253.574 415.754 253.574H391.145C389.484 253.574 388.508 253.379 388.215 252.988C387.922 252.598 387.775 251.719 387.775 250.352V214.902H197.053V250.352C197.053 251.914 196.857 252.842 196.467 253.135C196.076 253.428 195.148 253.574 193.684 253.574H169.074C167.512 253.574 166.584 253.379 166.291 252.988C165.998 252.598 165.852 251.719 165.852 250.352L166.438 218.271V208.311L165.852 191.611C165.852 189.951 166.047 188.975 166.438 188.682C166.828 188.389 167.707 188.242 169.074 188.242L208.771 188.828H274.396V188.242C274.396 177.109 273.713 168.613 272.346 162.754C283.576 163.047 294.367 163.633 304.719 164.512C307.746 164.805 309.26 165.684 309.26 167.148C309.26 168.027 308.625 170.029 307.355 173.154C306.379 175.889 305.891 180.918 305.891 188.242V188.828H376.057ZM507.014 216.953V260.752C507.014 299.131 505.402 332.432 502.18 360.654C499.348 385.654 492.561 409.238 481.818 431.406C480.061 435.215 478.645 437.119 477.57 437.119C476.496 437.119 474.494 435.508 471.564 432.285C464.045 423.789 457.453 417.93 451.789 414.707C462.727 395.664 469.611 373.154 472.443 347.178C475.275 321.592 476.691 290.879 476.691 255.039L476.105 192.93C476.105 191.367 476.301 190.439 476.691 190.146C477.082 189.854 477.961 189.707 479.328 189.707L519.318 190.293H582.307V186.338C582.307 176.084 581.721 168.223 580.549 162.754C591.389 163.047 601.984 163.633 612.336 164.512C615.559 164.805 617.17 165.781 617.17 167.441C617.17 169.492 616.535 171.396 615.266 173.154C613.898 175.596 613.215 179.795 613.215 185.752V190.293H682.795L722.346 189.707C723.908 189.707 724.885 189.902 725.275 190.293C725.568 190.684 725.715 191.562 725.715 192.93V214.316C725.715 215.879 725.52 216.807 725.129 217.1C724.738 217.393 723.811 217.539 722.346 217.539L682.795 216.953H507.014ZM493.684 414.707C511.262 405.918 525.471 395.518 536.311 383.506C528.107 373.154 521.223 363.047 515.656 353.184C514.777 351.523 514.338 350.352 514.338 349.668C514.338 348.691 515.461 347.373 517.707 345.713L530.305 337.07C532.16 335.801 533.479 335.166 534.26 335.166C535.334 335.166 536.311 336.045 537.189 337.803C541.682 346.104 546.613 353.721 551.984 360.654C557.844 349.521 562.141 336.533 564.875 321.689H545.686C544.123 324.033 543 325.84 542.316 327.109C541.438 328.574 540.363 329.307 539.094 329.307C538.41 329.307 537.482 329.16 536.311 328.867L519.611 323.447C516.975 322.568 515.656 321.592 515.656 320.518C515.656 319.834 516.242 318.711 517.414 317.148C530.988 298.691 542.609 279.795 552.277 260.459H539.094L521.662 261.045C520.1 261.045 519.123 260.85 518.732 260.459C518.439 260.068 518.293 259.189 518.293 257.822V237.754C518.293 236.094 518.537 235.117 519.025 234.824C519.318 234.531 520.197 234.385 521.662 234.385L543.488 234.971H561.799C564.143 234.971 566.047 234.678 567.512 234.092C568.781 233.506 570.002 233.213 571.174 233.213C573.127 233.213 576.447 235.508 581.135 240.098C586.311 245.078 588.898 248.594 588.898 250.645C588.898 252.305 587.971 253.867 586.115 255.332C583.869 256.992 581.77 259.629 579.816 263.242C574.152 273.691 567.365 285.557 559.455 298.838H571.467C573.811 298.838 575.617 298.545 576.887 297.959C577.961 297.178 579.133 296.787 580.402 296.787C583.039 296.787 586.457 299.082 590.656 303.672C594.855 308.066 596.955 311.387 596.955 313.633C596.955 314.609 595.734 316.318 593.293 318.76C591.73 320.322 590.461 323.789 589.484 329.16C585.285 349.473 579.377 366.709 571.76 380.869C582.014 388.975 593.537 394.736 606.33 398.154C619.123 401.572 635.09 403.281 654.23 403.281C680.305 403.281 706.428 402.109 732.6 399.766C729.279 405.039 726.984 412.021 725.715 420.713C724.738 425.889 723.713 428.867 722.639 429.648C721.662 430.332 718.977 430.771 714.582 430.967C698.957 431.748 680.354 432.139 658.771 432.139C632.307 432.139 610.334 429.258 592.854 423.496C579.768 419.297 568.146 413.047 557.99 404.746L555.793 403.281C545.734 415 533.869 425.107 520.197 433.604C516.486 435.557 514.289 436.533 513.605 436.533C512.336 436.533 510.236 434.336 507.307 429.941C503.889 424.277 499.348 419.199 493.684 414.707ZM720.441 293.857C722.102 293.857 723.078 294.053 723.371 294.443C723.664 294.834 723.811 295.811 723.811 297.373V316.27C723.811 317.832 723.615 318.809 723.225 319.199C722.932 319.492 722.004 319.639 720.441 319.639L686.604 319.053H672.834V353.77H680.305L712.092 353.184C713.654 353.184 714.631 353.379 715.021 353.77C715.314 354.16 715.461 355.088 715.461 356.553V375.449C715.461 376.914 715.266 377.842 714.875 378.232C714.582 378.525 713.654 378.672 712.092 378.672L680.305 378.086H639.582L607.795 378.672C605.744 378.672 604.719 377.598 604.719 375.449V356.553C604.719 354.307 605.744 353.184 607.795 353.184L639.582 353.77H645.002V319.053H637.824L604.133 319.639C602.57 319.639 601.643 319.443 601.35 319.053C601.057 318.662 600.91 317.734 600.91 316.27V297.373C600.91 295.713 601.105 294.688 601.496 294.297C601.887 294.004 602.766 293.857 604.133 293.857L637.824 294.443H645.002V265C638.459 266.172 629.768 267.441 618.928 268.809C616.389 269.102 614.68 269.248 613.801 269.248C611.75 269.248 610.334 268.564 609.553 267.197C609.162 266.514 608.283 264.17 606.916 260.166C605.549 256.064 603.01 251.377 599.299 246.104C635.139 243.076 661.848 238.291 679.426 231.748C685.383 229.6 690.754 227.158 695.539 224.424C701.398 229.111 707.014 234.727 712.385 241.27C713.85 242.93 714.582 244.541 714.582 246.104C714.582 247.764 712.971 248.74 709.748 249.033C706.916 249.326 703.498 250.156 699.494 251.523C691.682 254.355 682.795 256.943 672.834 259.287V294.443H686.604L720.441 293.857Z" fill="#FF0000"/>
<path d="M1249.33 163.633C1260.17 163.926 1270.33 164.609 1279.8 165.684C1283.02 165.977 1284.63 167.002 1284.63 168.76C1284.63 170.127 1284 172.227 1282.73 175.059C1281.36 177.793 1280.68 187.852 1280.68 205.234V261.631H1283.02L1315.4 261.045C1317.06 261.045 1318.03 261.24 1318.33 261.631C1318.62 262.021 1318.77 262.949 1318.77 264.414V285.654C1318.77 287.705 1317.64 288.73 1315.4 288.73L1284.93 288.145C1296.26 306.797 1309.73 324.082 1325.36 340C1321.06 345.176 1317.06 351.768 1313.35 359.775C1311.59 363.389 1310.17 365.195 1309.1 365.195C1308.02 365.195 1306.46 363.682 1304.41 360.654C1294.25 346.006 1286.15 331.699 1280.09 317.734L1282.14 435.361C1282.14 436.924 1281.9 437.9 1281.41 438.291C1281.02 438.584 1280.09 438.73 1278.63 438.73H1253.87C1252.31 438.73 1251.38 438.535 1251.09 438.145C1250.8 437.754 1250.65 436.826 1250.65 435.361C1250.65 434.58 1250.8 428.574 1251.09 417.344C1251.87 382.676 1252.41 352.012 1252.7 325.352C1243.33 350.449 1231.22 373.203 1216.37 393.613C1213.83 396.836 1212.03 398.447 1210.95 398.447C1209.68 398.447 1208.51 396.738 1207.44 393.32C1204.21 383.457 1200.6 376.182 1196.6 371.494C1217.79 346.982 1233.9 319.199 1244.94 288.145H1239.52L1206.85 288.73C1204.61 288.73 1203.48 287.705 1203.48 285.654V264.414C1203.48 262.754 1203.68 261.777 1204.07 261.484C1204.46 261.191 1205.39 261.045 1206.85 261.045L1239.52 261.631H1251.82V205.967C1251.82 189.756 1250.99 175.645 1249.33 163.633ZM1363.15 340.293L1409 331.357V211.24C1409 192.295 1408.17 177.109 1406.51 165.684C1418.23 165.977 1428.87 166.66 1438.44 167.734C1441.47 168.125 1442.98 169.248 1442.98 171.104C1442.98 171.885 1442.35 173.887 1441.08 177.109C1439.91 179.941 1439.32 191.025 1439.32 210.361V325.352C1446.74 323.789 1453.34 322.275 1459.1 320.811C1460.07 320.615 1461.73 320.176 1464.08 319.492C1465.15 319.297 1465.88 319.15 1466.28 319.053C1467.06 318.857 1467.59 318.76 1467.89 318.76C1468.67 318.76 1469.25 319.834 1469.64 321.982L1473.16 345.42C1473.26 346.201 1473.31 346.689 1473.31 346.885C1473.31 347.959 1472.28 348.643 1470.23 348.936C1469.64 349.131 1466.47 349.766 1460.71 350.84C1453.78 352.109 1446.65 353.477 1439.32 354.941V382.92L1439.91 434.775C1439.91 436.338 1439.71 437.314 1439.32 437.705C1438.93 437.998 1438 438.145 1436.54 438.145H1411.64C1410.07 438.145 1409.15 437.9 1408.85 437.412C1408.56 437.119 1408.41 436.24 1408.41 434.775L1409 383.213V360.947L1367.84 369.15C1356.61 371.299 1346.89 373.252 1338.69 375.01C1336.93 375.303 1334.63 375.742 1331.8 376.328C1330.53 376.621 1329.65 376.816 1329.17 376.914C1328.29 377.109 1327.65 377.207 1327.26 377.207C1326.09 377.207 1325.41 376.328 1325.21 374.57L1321.4 350.84C1321.21 349.863 1321.11 349.18 1321.11 348.789C1321.11 347.91 1322.09 347.275 1324.04 346.885C1324.53 346.787 1326.43 346.494 1329.75 346.006C1339.42 344.639 1350.55 342.734 1363.15 340.293ZM1348.65 254.6C1364.18 265.342 1377.99 278.135 1390.1 292.979C1391.08 294.248 1391.57 295.176 1391.57 295.762C1391.57 296.445 1390.79 297.617 1389.22 299.277L1374.43 313.926C1372.77 315.488 1371.6 316.27 1370.91 316.27C1370.33 316.27 1369.5 315.684 1368.42 314.512C1355.53 298.105 1342.35 284.531 1328.87 273.789C1327.51 272.324 1326.82 271.494 1326.82 271.299C1326.82 270.713 1327.6 269.639 1329.17 268.076L1342.94 254.893C1344.3 253.428 1345.23 252.695 1345.72 252.695C1346.21 252.695 1347.18 253.33 1348.65 254.6ZM1356.71 185.166C1374.19 197.373 1388.3 210.117 1399.04 223.398C1399.92 224.277 1400.36 225.107 1400.36 225.889C1400.36 226.67 1399.62 227.744 1398.16 229.111L1383.8 243.174C1381.95 244.932 1380.73 245.811 1380.14 245.811C1379.56 245.811 1378.87 245.225 1378.09 244.053C1366.28 229.014 1352.65 215.879 1337.22 204.648C1336.15 203.965 1335.61 203.232 1335.61 202.451C1335.61 201.475 1336.34 200.352 1337.81 199.082L1350.99 186.484C1352.75 184.922 1353.87 184.141 1354.36 184.141C1354.95 184.141 1355.73 184.482 1356.71 185.166ZM1286.25 240.684C1292.2 225.938 1296.79 210.85 1300.02 195.42C1300.99 190.732 1301.63 186.436 1301.92 182.529C1313.83 186.533 1321.4 189.316 1324.62 190.879C1326.87 192.051 1327.99 193.271 1327.99 194.541C1327.99 195.908 1327.41 196.885 1326.24 197.471C1324.77 198.447 1323.55 200.693 1322.57 204.209C1319.45 214.951 1314.86 227.646 1308.8 242.295C1307.05 246.494 1305.53 248.594 1304.26 248.594C1303.29 248.594 1301.29 247.666 1298.26 245.811C1294.55 243.857 1290.54 242.148 1286.25 240.684ZM1228.38 187.363C1235.61 203.77 1240.98 220.566 1244.5 237.754C1244.69 238.438 1244.79 238.975 1244.79 239.365C1244.79 240.83 1243.42 242.1 1240.69 243.174L1227.8 248.008C1225.94 248.691 1224.72 249.033 1224.14 249.033C1223.26 249.033 1222.67 248.057 1222.38 246.104C1219.25 229.014 1214.18 212.314 1207.14 196.006C1206.75 195.029 1206.56 194.248 1206.56 193.662C1206.56 192.588 1207.83 191.562 1210.37 190.586L1222.96 185.459C1224.33 184.873 1225.31 184.58 1225.89 184.58C1226.68 184.58 1227.51 185.508 1228.38 187.363ZM1618.18 424.961L1576.43 425.547C1574.87 425.547 1573.89 425.352 1573.5 424.961C1573.21 424.57 1573.06 423.691 1573.06 422.324V400.938C1573.06 399.473 1573.21 398.594 1573.5 398.301C1573.89 397.91 1574.87 397.715 1576.43 397.715L1618.18 398.301H1663.74V368.857H1645.13L1606.46 369.443C1604.8 369.443 1603.82 369.248 1603.53 368.857C1603.24 368.467 1603.09 367.588 1603.09 366.221V345.42C1603.09 343.857 1603.29 342.93 1603.68 342.637C1604.07 342.344 1605 342.197 1606.46 342.197L1645.13 342.783H1663.74V316.855H1644.25L1605.29 317.441C1603.53 317.441 1602.46 317.246 1602.07 316.855C1601.77 316.562 1601.63 315.781 1601.63 314.512L1602.21 281.113V214.609L1601.63 181.943C1601.63 180.283 1601.82 179.307 1602.21 179.014C1602.7 178.721 1603.73 178.574 1605.29 178.574L1644.25 179.16H1715.59L1754.85 178.574C1756.41 178.574 1757.39 178.77 1757.78 179.16C1758.07 179.551 1758.22 180.479 1758.22 181.943L1757.63 214.609V281.113L1758.22 314.512C1758.22 316.465 1757.1 317.441 1754.85 317.441L1715.59 316.855H1693.77V342.783H1716.47L1755.29 342.197C1756.85 342.197 1757.78 342.393 1758.07 342.783C1758.37 343.174 1758.51 344.053 1758.51 345.42V366.221C1758.51 367.686 1758.32 368.613 1757.93 369.004C1757.63 369.297 1756.75 369.443 1755.29 369.443L1716.47 368.857H1693.77V398.301H1728.19L1769.64 397.715C1771.21 397.715 1772.13 397.91 1772.43 398.301C1772.72 398.691 1772.87 399.57 1772.87 400.938V422.324C1772.87 423.789 1772.67 424.668 1772.28 424.961C1771.99 425.352 1771.11 425.547 1769.64 425.547L1728.19 424.961H1618.18ZM1729.07 291.66V259.58H1693.77V291.66H1729.07ZM1729.07 204.648H1693.77V234.971H1729.07V204.648ZM1630.48 291.66H1663.74V259.58H1630.48V291.66ZM1630.48 234.971H1663.74V204.648H1630.48V234.971ZM1594.45 329.16C1594.25 331.992 1594.16 335.068 1594.16 338.389C1594.16 341.611 1594.25 345.029 1594.45 348.643C1594.55 350.596 1594.6 352.012 1594.6 352.891C1594.6 355.625 1594.21 357.48 1593.42 358.457C1592.74 359.434 1590.59 360.996 1586.98 363.145C1568.62 372.812 1546.99 382.383 1522.09 391.855C1516.62 394.199 1513.54 395.713 1512.86 396.396C1511.1 397.764 1509.49 398.447 1508.02 398.447C1506.46 398.447 1505.14 397.129 1504.07 394.492C1501.82 387.852 1499.33 378.477 1496.6 366.367C1504.12 365.098 1513.54 362.705 1524.87 359.189L1533.51 356.26V291.074L1507.14 291.66C1505.58 291.66 1504.61 291.465 1504.21 291.074C1503.92 290.684 1503.78 289.805 1503.78 288.438V266.758C1503.78 265.098 1503.97 264.072 1504.36 263.682C1504.75 263.389 1505.68 263.242 1507.14 263.242L1533.51 263.828V210.947H1531.75L1503.48 211.68C1502.12 211.68 1501.24 211.484 1500.85 211.094C1500.65 210.703 1500.55 209.775 1500.55 208.311V186.338C1500.55 184.678 1500.75 183.652 1501.14 183.262C1501.43 182.969 1502.21 182.822 1503.48 182.822L1531.75 183.408H1562.96L1591.08 182.822C1592.74 182.822 1593.72 183.066 1594.01 183.555C1594.3 183.945 1594.45 184.873 1594.45 186.338V208.311C1594.45 209.873 1594.25 210.85 1593.86 211.24C1593.47 211.533 1592.54 211.68 1591.08 211.68L1563.25 210.947V263.828L1587.27 263.242C1588.74 263.242 1589.62 263.438 1589.91 263.828C1590.1 264.219 1590.2 265.195 1590.2 266.758V288.438C1590.2 290 1590.05 290.928 1589.76 291.221C1589.47 291.514 1588.64 291.66 1587.27 291.66L1563.25 291.074V344.541C1575.94 338.682 1586.34 333.555 1594.45 329.16Z" fill="#FF0000"/>
<path d="M896.325 418.76C884.008 417.703 871.814 415.512 859.899 412.214L857.434 411.505L857.176 395.783L853.362 394.293C840.552 389.303 828.952 381.641 819.335 371.816C807.693 360.035 798.935 346.768 787.12 323.041C784.685 318.447 782.704 313.626 781.205 308.647C780.277 305.403 778.577 299.82 777.426 296.247C773.745 284.803 773.568 277.722 776.742 268.956C780.674 258.095 791.437 247.304 805.269 240.356C810.463 237.698 815.928 235.608 821.569 234.12C827.495 232.65 827.522 232.633 827.875 230.002C828.45 225.726 831.875 221.195 836.188 218.991C839.548 217.276 846.179 215.726 856.427 214.259C871.164 212.15 870.655 212.299 872.044 209.68C875.444 203.26 883.065 199.169 891.613 199.169C895.601 199.218 899.548 199.982 903.266 201.424L906.901 202.678L909.401 201.573C913.647 199.726 918.133 198.491 922.725 197.905C929.545 197.33 935.564 199.719 941.652 205.419C946.515 209.971 953.132 215.342 955.815 216.919C957.625 217.98 958.042 218.071 958.567 217.519C958.907 217.158 975.472 193.719 995.378 165.424C1015.28 137.129 1031.77 113.767 1032.01 113.505C1032.89 112.559 1037.25 112.994 1040.07 114.305C1043.62 115.968 1047.69 119.838 1048.73 122.538C1049.5 124.554 1049.49 124.683 1048.6 125.91C1031.96 148.844 976.742 226.079 976.742 226.41C976.742 226.981 980.594 228.429 986.885 230.221C989.228 230.873 991.535 231.646 993.798 232.536C996.132 233.569 999.098 236.346 1001.32 239.567C1002.33 241.036 1004.12 242.387 1008.45 244.949C1017.31 250.184 1018.74 251.089 1021.69 253.324L1024.43 255.405L1041.03 245.694C1050.16 240.352 1076.42 224.959 1099.38 211.487L1141.13 186.994L1142.5 187.769C1143.89 188.722 1145.2 189.802 1146.4 190.994C1147.95 192.371 1149.2 194.051 1150.07 195.932C1150.94 197.812 1151.42 199.851 1151.47 201.923L1151.5 204.929L1094.65 237.086C1063.39 254.772 1037.55 269.414 1037.23 269.623C1036.79 269.913 1036.87 270.434 1037.58 271.83C1039.86 276.298 1040.64 280.592 1040.64 288.83C1040.65 296.986 1040.1 299.93 1037.61 304.842C1036.61 307.243 1035.75 309.696 1035.01 312.19C1028.41 333.554 1016.6 353.19 998.344 373.171C990.318 381.954 982.411 387.506 968.569 394.081L962.135 397.137L962.125 412.855L955.116 414.564C941.511 417.881 928.91 419.112 909.769 418.992C903.413 418.952 897.364 418.85 896.326 418.763L896.325 418.76Z" fill="#FF0000"/>
</g>
</g>
<defs>
<clipPath id="clip0_801_2">
<rect width="1926" height="532" fill="white"/>
</clipPath>
</defs>
</svg>
